<svg width="52" height="52" viewBox="0 0 52 52" fill="none" xmlns="http://www.w3.org/2000/svg">
<g clip-path="url(#clip0)">
<path d="M5.95831 25.4583C5.06998 25.4583 4.33331 26.195 4.33331 27.0833V40.755C4.33331 43.3117 5.97998 45.5867 8.40665 46.41C9.62431 46.8152 24.739 52 26 52V25.4583H5.95831Z" fill="#2196F3"/>
<path d="M26 25.4583V52C27.261 52 42.3757 46.8152 43.5933 46.41C46.02 45.5867 47.6667 43.3117 47.6667 40.755V27.0833C47.6667 26.195 46.93 25.4583 46.0417 25.4583H26Z" fill="#64B5F6"/>
<path d="M24.9167 23.9243L6.49999 18.5077C5.85866 18.2823 5.13066 18.4752 4.68866 19.0277L0.355326 23.361C-0.322841 24.2082 0.00649253 25.48 1.02266 25.8852L19.981 32.3852C20.7155 32.6798 21.5757 32.4003 21.9895 31.694L25.7812 26.2773C26.2882 25.4042 25.8808 24.2667 24.9167 23.9243V23.9243Z" fill="#42A5F5"/>
<path d="M27.0833 23.9243L45.5 18.5077C46.1392 18.2823 46.8693 18.4752 47.3092 19.0255L51.6425 23.3588C52.3185 24.206 51.9913 25.4778 50.9752 25.883L32.0168 32.383C31.2823 32.6777 30.4222 32.3982 30.0083 31.6918L26.2167 26.2752C25.7118 25.4042 26.1192 24.2667 27.0833 23.9243V23.9243Z" fill="#42A5F5"/>
<path d="M24.9167 12.909L6.49999 18.3257C5.85866 18.551 5.13066 18.3582 4.68866 17.8057L0.355326 13.4723C-0.322841 12.6252 0.00649253 11.3533 1.02266 10.9482L19.981 4.44816C20.7155 4.1535 21.5757 4.433 21.9895 5.13933L25.7812 10.556C26.2882 11.4292 25.8808 12.5667 24.9167 12.909Z" fill="#42A5F5"/>
<path d="M27.0833 12.909L45.5 18.3257C46.1392 18.551 46.8693 18.3582 47.3092 17.8079L51.6425 13.4745C52.3185 12.6274 51.9913 11.3555 50.9752 10.9504L32.0168 4.45038C31.2823 4.15571 30.4222 4.43521 30.0083 5.14154L26.2167 10.5582C25.7118 11.4292 26.1192 12.5667 27.0833 12.909V12.909Z" fill="#42A5F5"/>
<path d="M30.875 9.20834H28.1667V2.16667C28.1667 0.970667 27.196 0 26 0C24.804 0 23.8333 0.970667 23.8333 2.16667V9.20834H21.125C19.682 9.20834 18.9562 10.9612 19.9767 11.9817L24.8517 16.8567C25.168 17.1752 25.584 17.3333 26 17.3333C26.416 17.3333 26.832 17.1752 27.1483 16.8567L32.0233 11.9817C33.0438 10.9612 32.318 9.20834 30.875 9.20834Z" fill="#CFD8DC"/>
<path d="M26 25.48C25.9978 25.7508 25.9263 26.0238 25.779 26.2752L21.9873 31.6918C21.6861 32.2118 21.1401 32.5 20.5811 32.5C20.3796 32.5 20.176 32.4632 19.981 32.3852L4.33548 27.0205C4.33331 27.0422 4.33331 27.0617 4.33331 27.0833V40.755C4.33331 43.3117 5.97998 45.5867 8.40665 46.41C9.62431 46.8152 24.739 52 26 52V25.48Z" fill="#1D83D4"/>
<path d="M5.98866 18.4167C5.97783 18.4167 5.96916 18.4167 5.95833 18.4167C5.94749 18.4167 5.93883 18.4167 5.92799 18.4167C5.45999 18.4253 5.00283 18.6355 4.68866 19.0277L0.355326 23.361C-0.322841 24.2082 0.00649253 25.48 1.02266 25.8852L4.33549 27.0205L19.981 32.3852C20.176 32.4632 20.3797 32.5 20.5812 32.5C21.1402 32.5 21.684 32.2118 21.9873 31.6918L25.779 26.2752C25.9263 26.0238 25.9957 25.7487 26 25.48V25.4475C25.9935 24.7932 25.5905 24.1648 24.9167 23.9265L6.49999 18.5077C6.33316 18.4492 6.15983 18.4188 5.98866 18.4167V18.4167Z" fill="#3990D5"/>
<path d="M20.5812 4.33333C20.3797 4.33333 20.176 4.37016 19.981 4.44816L1.02268 10.9482C0.00650962 11.3533 -0.320657 12.6252 0.355343 13.4723L4.68868 17.8057C5.00284 18.1978 5.46001 18.408 5.92801 18.4167H5.95834H5.98868C6.15984 18.4145 6.33318 18.3842 6.50001 18.3257L21.8162 13.8212L19.9767 11.9817C18.9562 10.9612 19.682 9.20833 21.125 9.20833H23.8333V7.77616L21.9873 5.13933C21.6862 4.62149 21.1402 4.33333 20.5812 4.33333V4.33333Z" fill="#3990D5"/>
<path d="M26 0C24.804 0 23.8333 0.970667 23.8333 2.16667V7.77617V9.20834H21.125C19.682 9.20834 18.9562 10.9612 19.9767 11.9817L21.814 13.819L24.8517 16.8567C25.168 17.1752 25.584 17.3333 26 17.3333V0Z" fill="#B4BCC0"/>
</g>
<defs>
<clipPath id="clip0">
<rect width="52" height="52" fill="white"/>
</clipPath>
</defs>
</svg>
