<svg width="52" height="52" viewBox="0 0 52 52" fill="none" xmlns="http://www.w3.org/2000/svg">
<g clip-path="url(#clip0)" >
<path 
    d="M49.7419 14.3498H48.8365C48.5532 13.5883 48.2217 12.8503 47.8422 12.1417L48.5388 11.4451C49.4206 10.5632 49.4206 9.13355 48.5388 8.25169L43.7483 3.46126C42.8665 2.5794 41.4368 2.5794 40.5549 3.46126L39.6565 4.35964C39.0083 4.05376 38.3382 3.78703 37.6503 3.55925V2.25813C37.6503 1.01094 36.6392 0 35.3921 0H28.6173C27.3703 0 26.3592 1.01094 26.3592 2.25813V3.55925C25.6714 3.78713 25.0012 4.05386 24.3529 4.35964L23.4546 3.46126C22.5727 2.5794 21.143 2.5794 20.2611 3.46126L15.4707 8.25169C14.5889 9.13355 14.5889 10.5633 15.4707 11.4451L16.1673 12.1417C15.7878 12.8503 15.4562 13.5883 15.173 14.3498H14.2676C13.0205 14.3498 12.0095 15.3607 12.0095 16.6079V23.3826C12.0095 24.6297 13.0204 25.6407 14.2676 25.6407H14.7678C15.0315 26.5442 15.3632 27.4188 15.7589 28.2573L15.4708 28.5454C14.589 29.4272 14.589 30.8569 15.4708 31.7388L20.2612 36.5292C21.1431 37.4111 22.5728 37.4111 23.4547 36.5292L23.5409 36.443C24.4374 36.9232 25.3801 37.3279 26.3594 37.6521V37.7323C26.3594 38.9794 27.3704 39.9905 28.6175 39.9905H35.3923C36.6394 39.9905 37.6505 38.9795 37.6505 37.7323V37.6521C38.6297 37.3277 39.5724 36.9231 40.469 36.443L40.5552 36.5292C41.4371 37.4111 42.8668 37.4111 43.7486 36.5292L48.5391 31.7388C49.4209 30.8569 49.4209 29.4272 48.5391 28.5454L48.251 28.2573C48.6466 27.4188 48.9784 26.5442 49.2421 25.6407H49.7423C50.9894 25.6407 52.0004 24.6298 52.0004 23.3826V16.6079C52 15.3608 50.9891 14.3498 49.7419 14.3498V14.3498ZM32.0048 27.8238C28.0179 27.8238 24.7867 24.5925 24.7867 20.6057C24.7867 16.6188 28.0179 13.3876 32.0048 13.3876C35.9917 13.3876 39.2229 16.6189 39.2229 20.6057C39.2229 24.5924 35.9916 27.8238 32.0048 27.8238Z" fill="url(#paint0_linear)"
>
    <animateTransform
    attributeName="transform"
    type="rotate"
    from="0 32.005 19.995"
    to="360 32.005 19.995"
    dur="6s"
    repeatCount="indefinite"
    restart="whenNotActive"/>
</path>

<path
 d="M32.0048 33.7481C39.2639 33.7481 45.1472 27.8648 45.1472 20.6057C45.1472 13.3466 39.2639 7.46312 32.0048 7.46312C24.7457 7.46312 18.8624 13.3465 18.8624 20.6056C18.8624 27.8647 24.7456 33.7481 32.0048 33.7481ZM32.0048 13.3876C35.9917 13.3876 39.2229 16.6188 39.2229 20.6057C39.2229 24.5925 35.9917 27.8238 32.0048 27.8238C28.0179 27.8238 24.7867 24.5924 24.7867 20.6057C24.7867 16.6189 28.0179 13.3876 32.0048 13.3876Z" fill="url(#paint1_linear)"
 >
    <animateTransform
    attributeName="transform"
    type="rotate"
    from="0 32.005 19.995"
    to="360 32.005 19.995"
    dur="6s"
    repeatCount="indefinite"
    restart="whenNotActive"/>
</path>
<path
 d="M28.6174 39.9905H35.392C35.772 39.9905 36.1298 39.8962 36.444 39.7304L22.6475 26.0361C22.0182 25.4068 21.1001 25.4068 20.4709 26.0361L20.1813 26.3257L18.0133 24.1643C17.7228 23.7417 17.2365 23.6683 16.685 23.6683C16.685 23.6683 12.023 23.6412 12.0363 23.7274C12.2023 24.8107 13.1378 25.6406 14.2676 25.6406H14.7678C15.0315 26.5442 15.3632 27.4187 15.7589 28.2572L15.4708 28.5452C14.589 29.4271 14.589 30.8568 15.4708 31.7387L20.2613 36.5291C21.1431 37.4109 22.5728 37.4109 23.4547 36.5291L23.5409 36.4429C24.4374 36.9231 25.3801 37.3277 26.3594 37.652V37.7322C26.3593 38.9795 27.3703 39.9905 28.6174 39.9905V39.9905Z" fill="url(#paint2_linear)"
 />
<path 
    d="M26.9245 33.7037H26.2784C26.0763 33.1604 25.8396 32.6338 25.5688 32.1281L26.0659 31.6311C26.6952 31.0019 26.6952 29.9817 26.0659 29.3524L22.6475 25.934C22.0183 25.3047 20.9981 25.3047 20.3688 25.934L19.7278 26.5751C19.2652 26.3569 18.787 26.1665 18.2961 26.0039V25.0754C18.2961 24.1855 17.5748 23.4641 16.6849 23.4641H11.8507C10.9608 23.4641 10.2394 24.1855 10.2394 25.0754V26.0039C9.74857 26.1664 9.27038 26.3568 8.80778 26.5751L8.16675 25.934C7.53745 25.3047 6.51733 25.3047 5.88803 25.934L2.46969 29.3524C1.84039 29.9817 1.84039 31.0019 2.46969 31.6311L2.96675 32.1281C2.69595 32.6339 2.4594 33.1604 2.25721 33.7037H1.61108C0.721373 33.7037 0 34.4251 0 35.315V40.1492C0 41.0391 0.721373 41.7605 1.61129 41.7605H1.96815C2.15627 42.4052 2.39302 43.0293 2.67535 43.6276L2.4698 43.8331C1.84049 44.4623 1.84049 45.4826 2.4698 46.1119L5.88813 49.5302C6.51744 50.1595 7.53755 50.1595 8.16686 49.5302L8.22834 49.4687C8.86804 49.8113 9.54068 50.1001 10.2395 50.3315V50.3888C10.2395 51.2787 10.9609 52.0001 11.8508 52.0001H16.685C17.5749 52.0001 18.2963 51.2787 18.2963 50.3888V50.3315C18.995 50.1001 19.6677 49.8113 20.3074 49.4687L20.3689 49.5302C20.9982 50.1595 22.0183 50.1595 22.6476 49.5302L26.066 46.1119C26.6953 45.4826 26.6953 44.4624 26.066 43.8331L25.8604 43.6276C26.1427 43.0292 26.3794 42.4052 26.5676 41.7605H26.9246C27.8145 41.7605 28.5359 41.0391 28.5359 40.1492V35.315C28.5358 34.4251 27.8144 33.7037 26.9245 33.7037V33.7037ZM14.2679 43.3182C11.4231 43.3182 9.11733 41.0125 9.11733 38.1677C9.11733 35.3228 11.4231 33.0171 14.2679 33.0171C17.1127 33.0171 19.4184 35.3229 19.4184 38.1677C19.4184 41.0125 17.1127 43.3182 14.2679 43.3182Z" fill="url(#paint3_linear)"
 >
 <animateTransform
    attributeName="transform"
    type="rotate"
    from="360 14.27 37.73"
    to="0 14.27 37.73"
    dur="2s"
    repeatCount="indefinite"
    restart="whenNotActive"/>
</path>

<path
 d="M20.8991 31.5364C17.2364 27.8736 11.2993 27.8736 7.63666 31.5364C3.97403 35.1991 3.97393 41.1362 7.63666 44.7988C11.2994 48.4614 17.2365 48.4615 20.8991 44.7988C24.5617 41.1361 24.5618 35.1991 20.8991 31.5364ZM10.6258 41.8096C8.61426 39.798 8.61426 36.5372 10.6258 34.5256C12.6374 32.5141 15.8982 32.5141 17.9099 34.5256C19.9215 36.5372 19.9215 39.798 17.9099 41.8096C15.8982 43.8213 12.6375 43.8213 10.6258 41.8096V41.8096Z" fill="url(#paint4_linear)"
>
 <animateTransform
    attributeName="transform"
    type="rotate"
    from="360 14.27 37.73"
    to="0 14.27 37.73"
    dur="2s"
    repeatCount="indefinite"
    restart="whenNotActive"/>
</path>
</g>
<defs>
<linearGradient id="paint0_linear" x1="17.6199" y1="5.61039" x2="48.3781" y2="36.3686" gradientUnits="userSpaceOnUse">
<stop stop-color="#B5DBFF"/>
<stop offset="1" stop-color="#48B2E3"/>
</linearGradient>
<linearGradient id="paint1_linear" x1="41.4599" y1="30.0608" x2="21.2425" y2="9.8434" gradientUnits="userSpaceOnUse">
<stop stop-color="#B5DBFF"/>
<stop offset="1" stop-color="#48B2E3"/>
</linearGradient>
<linearGradient id="paint2_linear" x1="39.0565" y1="48.8337" x2="4.06022" y2="13.8374" gradientUnits="userSpaceOnUse">
<stop stop-color="#07485E" stop-opacity="0"/>
<stop offset="0.3332" stop-color="#063F52" stop-opacity="0.333"/>
<stop offset="0.9358" stop-color="#032632" stop-opacity="0.936"/>
<stop offset="1" stop-color="#03232E"/>
</linearGradient>
<linearGradient id="paint3_linear" x1="4.00339" y1="27.4676" x2="25.9514" y2="49.4156" gradientUnits="userSpaceOnUse">
<stop stop-color="#76E2F8"/>
<stop offset="1" stop-color="#48B2E3"/>
</linearGradient>
<linearGradient id="paint4_linear" x1="14.2679" y1="47.7157" x2="14.2679" y2="27.3169" gradientUnits="userSpaceOnUse">
<stop stop-color="#76E2F8"/>
<stop offset="1" stop-color="#48B2E3"/>
</linearGradient>
<clipPath id="clip0">
<rect width="52" height="52" fill="white"/>
</clipPath>
</defs>
</svg>
