<svg width="58" height="58" viewBox="0 0 58 58" fill="none" xmlns="http://www.w3.org/2000/svg">
<g clip-path="url(#clip0)">
<path d="M55.3435 31.9045C55.4656 30.8947 55.5268 29.8785 55.5268 28.8613C55.4338 14.2187 43.5049 2.41505 28.8621 2.47642C27.846 2.48694 26.8314 2.5586 25.8238 2.69107C17.918 -2.24876 7.50453 0.155541 2.56471 8.06133C-0.888302 13.5876 -0.852019 20.6079 2.65807 26.098C2.53701 27.1071 2.47654 28.1224 2.47722 29.1387C2.56889 43.7813 14.4967 55.5862 29.1395 55.5261C30.1564 55.5155 31.1718 55.4438 32.1802 55.3115C40.0873 60.2491 50.5001 57.8419 55.4378 49.9347C58.8879 44.4099 58.8511 37.393 55.3435 31.9045ZM29.1008 48.3017C19.74 48.3499 14.6038 42.8014 14.5894 39.9368V38.731C14.5746 36.7334 16.1819 35.1022 18.1794 35.0872C20.0733 35.0732 21.6575 36.5225 21.8113 38.4103C22.7541 40.2645 26.0987 41.082 29.0694 41.0628C29.366 41.0628 36.3034 40.9687 36.2769 36.2015C36.2769 33.8987 33.2001 32.9728 28.1531 31.7188C22.0813 30.2069 14.5338 28.3309 14.4903 20.6362C14.4373 10.9088 22.0089 9.74663 27.6948 9.71521C35.7535 9.67418 40.9741 12.9609 41.0006 18.085C41.017 20.0826 39.4109 21.7152 37.4134 21.7316C35.5878 21.7467 34.0373 20.3989 33.7979 18.589C31.9898 17.3079 29.7788 16.7253 27.5742 16.9492C26.1378 16.855 24.6966 17.0316 23.3255 17.4701C22.5731 17.8052 21.7123 18.4635 21.7219 20.6048C21.7219 22.394 25.3606 23.3851 29.197 24.434C35.5509 26.1678 43.4577 28.3283 43.4987 36.1652C43.5445 43.4837 37.8923 48.2461 29.103 48.2918L29.1008 48.3017Z" fill="#2196F3"/>
</g>
<defs>
<clipPath id="clip0">
<rect width="58" height="58" fill="white"/>
</clipPath>
</defs>
</svg>
