<svg width="52" height="52" viewBox="0 0 52 52" fill="none" xmlns="http://www.w3.org/2000/svg">
<path
 d="M50.6828 26.3135C51.5667 26.4875 52.1422 27.3441 51.9693 28.2269L51.3245 31.5106C51.1462 32.4196 50.2446 33.0025 49.3345 32.7792C48.4821 32.5706 47.9653 31.6993 48.1341 30.8386L48.1519 30.7505L43.9015 30.9445C43.7736 30.9497 43.6625 31.0346 43.6226 31.1573C43.2074 32.4112 42.6612 33.6064 41.9996 34.7241C41.9325 34.8373 41.943 34.981 42.0279 35.0816L43.9078 37.3148C44.281 36.9594 44.7686 36.7748 45.2613 36.7748C45.6765 36.7748 46.0959 36.9059 46.4513 37.1785C47.3121 37.8369 47.4756 39.0688 46.8172 39.9306L46.272 40.6425C45.6325 41.4792 44.4404 41.7036 43.5723 41.1049C42.8247 40.5901 42.5542 39.6643 42.8247 38.8602L40.1166 37.6702C39.994 37.6167 39.8524 37.6482 39.7633 37.7467C38.5094 39.1233 37.0499 40.3081 35.4332 41.2538C35.3221 41.3188 35.2623 41.4446 35.2833 41.5715L35.9763 45.7988L36.576 45.5587C37.4368 45.2148 38.416 45.6551 38.7232 46.5411C39.0105 47.3704 38.5597 48.2773 37.745 48.6023L34.6804 49.829C33.8207 50.1729 32.8415 49.7325 32.5343 48.8466C32.247 48.0173 32.6978 47.1104 33.5125 46.7843L33.5953 46.7518L31.1231 43.2878C31.0486 43.1829 30.9176 43.1368 30.7928 43.1693C29.3156 43.552 27.766 43.7575 26.1681 43.7575C24.9037 43.7575 23.6708 43.6285 22.4787 43.3853C22.3529 43.3601 22.2239 43.4136 22.1547 43.5216L19.6814 47.4018L19.7685 47.4333C20.5737 47.7269 21.0727 48.487 21.0727 49.2964C21.0727 49.5228 21.0339 49.7525 20.9521 49.9768C20.9521 51.1374 20.0599 51.7623 18.9695 51.3639L15.9301 50.2557C14.9131 49.8856 14.3826 48.769 14.7338 47.7489C15.0945 46.6973 16.2929 46.1668 17.3371 46.5474L17.4074 46.5725L17.9106 42.0254C17.9253 41.8975 17.8582 41.7759 17.7439 41.7161C15.819 40.7222 14.0922 39.398 12.638 37.818C12.5499 37.7226 12.4126 37.6912 12.2931 37.7405L8.58368 39.2617C9.00306 40.046 8.76716 41.0399 8.00179 41.5431C7.20288 42.0684 6.12403 41.8241 5.57884 41.0399L4.62896 39.6717C4.09739 38.9074 4.22111 37.8422 4.95292 37.2655C5.73296 36.6511 6.84536 36.8105 7.42934 37.5832L10.0421 34.6308C10.1291 34.5322 10.1438 34.3896 10.0798 34.2753C9.00725 32.342 8.27334 30.1948 7.95776 27.9145C7.93994 27.7865 7.84662 27.6827 7.72186 27.6544L3.54696 26.6899L3.54277 27.1795C3.53858 27.6691 3.33727 28.1126 3.01331 28.4324C2.69039 28.7532 2.24585 28.9503 1.75518 28.9503C0.780124 28.9503 -0.00935226 28.1545 8.37132e-05 27.1795L0.0273432 24.1464C0.0357307 23.1545 0.855612 22.3189 1.84639 22.3451C2.80781 22.3703 3.57527 23.1608 3.57003 24.1254L7.71452 23.1535C7.84033 23.1241 7.93364 23.0203 7.95042 22.8924C8.27544 20.481 9.06911 18.2174 10.236 16.196C10.301 16.0828 10.2895 15.9412 10.2046 15.8406L8.22826 13.5193L8.05631 13.7458C7.5237 14.4504 6.50671 14.573 5.81999 14.0016C5.17624 13.4648 5.09761 12.5024 5.60296 11.8345L6.9198 10.0941C7.22595 9.69043 7.69041 9.4776 8.16116 9.4776C8.48722 9.4776 8.81643 9.58035 9.09742 9.79213C9.7485 10.2839 9.90157 11.1876 9.47171 11.8649L12.2354 13.0601C12.357 13.1125 12.4975 13.0811 12.5877 12.9836C13.8919 11.5535 15.4195 10.331 17.1159 9.36961C17.227 9.30565 17.2889 9.18089 17.27 9.05403L16.6336 4.81727L16.0297 5.05003C15.1658 5.38239 14.1918 4.92841 13.8972 4.03933C13.6204 3.20582 14.0838 2.30521 14.9026 1.99068L17.983 0.805936C18.8479 0.47358 19.8209 0.926507 20.1155 1.81663C20.3923 2.6491 19.9299 3.54971 19.11 3.86529L19.0272 3.89674L21.4512 7.39225C21.5246 7.49814 21.6546 7.54637 21.7794 7.51596C23.1864 7.17103 24.6552 6.9886 26.1681 6.9886H26.1702C26.3023 6.9886 26.4208 6.90787 26.4649 6.7831L27.268 4.53734C26.338 4.24587 25.7184 3.32849 25.8368 2.32827C25.9721 1.19491 27.0572 0.389705 28.1906 0.532293L29.2936 0.670687C30.4175 0.812227 31.2604 1.81873 31.1378 2.94581C31.0413 3.82335 30.4101 4.50694 29.6091 4.71662L29.888 7.15111C29.9027 7.28216 30.0002 7.3891 30.1302 7.41741C31.9943 7.82735 33.7526 8.52037 35.3567 9.44824C35.4689 9.5122 35.6073 9.50276 35.7069 9.42098L39.0336 6.72125L38.5282 6.31969C37.8017 5.74305 37.6989 4.67469 38.3154 3.96909C38.892 3.30752 39.9038 3.24881 40.5905 3.79504L43.1749 5.84684C43.9015 6.42244 44.0042 7.49185 43.3878 8.19745C42.8111 8.85797 41.7994 8.91668 41.1126 8.37149L41.0424 8.31593L39.2611 12.1836C39.2066 12.3 39.2317 12.4374 39.3219 12.5296C40.5758 13.814 41.6431 15.2818 42.4798 16.888C42.5406 17.0044 42.6675 17.0704 42.7975 17.0526L45.3232 16.6993C44.952 15.6634 45.5025 14.5154 46.5614 14.1683C47.571 13.837 48.6593 14.3979 49.0305 15.394L49.6124 16.954C49.9793 17.9406 49.539 19.0698 48.5744 19.4892C47.6497 19.8907 46.6065 19.528 46.1095 18.7081L44.0137 20.1298C43.9036 20.2042 43.8543 20.3405 43.89 20.4684C44.3209 22.0306 44.5515 23.6746 44.5515 25.373C44.5515 25.6572 44.5452 25.9392 44.5316 26.2191C44.5264 26.3481 44.5987 26.4666 44.7161 26.5179L48.6457 28.2342L48.7694 27.5999C48.9435 26.7161 49.8 26.1405 50.6828 26.3135V26.3135Z" fill="#F79595"
 >
     <animateTransform
    attributeName="transform"
    type="rotate"
    from="0 25 25"
    to="360 25 25"
    dur="10s"
    repeatCount="indefinite"
    restart="whenNotActive"/>
</path>

<path d="M34.1509 18.492C35.5844 18.492 36.7465 17.5204 36.7465 16.3218C36.7465 15.1233 35.5844 14.1517 34.1509 14.1517C32.7175 14.1517 31.5554 15.1233 31.5554 16.3218C31.5554 17.5204 32.7175 18.492 34.1509 18.492Z" fill="#EE6161"/>
<path d="M24.7845 32.6733C26.3513 32.6733 27.6215 31.4032 27.6215 29.8364C27.6215 28.2695 26.3513 26.9994 24.7845 26.9994C23.2177 26.9994 21.9475 28.2695 21.9475 29.8364C21.9475 31.4032 23.2177 32.6733 24.7845 32.6733Z" fill="#EE6161"/>
<path d="M35.8411 30.3896C36.9629 30.3896 37.8723 29.4802 37.8723 28.3584C37.8723 27.2365 36.9629 26.3271 35.8411 26.3271C34.7192 26.3271 33.8098 27.2365 33.8098 28.3584C33.8098 29.4802 34.7192 30.3896 35.8411 30.3896Z" fill="#F9B1B1"/>
<path d="M28.3392 40.246C29.4299 40.246 30.3141 39.3618 30.3141 38.2712C30.3141 37.1805 29.4299 36.2963 28.3392 36.2963C27.2485 36.2963 26.3644 37.1805 26.3644 38.2712C26.3644 39.3618 27.2485 40.246 28.3392 40.246Z" fill="#F9B1B1"/>
<path
 d="M14.988 24.4925C14.988 17.4252 18.3595 11.1439 23.5795 7.16935C22.9701 7.25532 22.3684 7.37149 21.7794 7.51597C21.6546 7.54637 21.5246 7.49814 21.4512 7.39225L19.0272 3.89674L19.11 3.86529C19.9299 3.54971 20.3923 2.6491 20.1155 1.81663C19.8209 0.926508 18.8479 0.473581 17.983 0.805937L14.9026 1.99068C14.0838 2.30521 13.6204 3.20582 13.8972 4.03933C14.1918 4.92841 15.1658 5.38239 16.0297 5.05003L16.6336 4.81728L17.27 9.05403C17.2889 9.18089 17.227 9.30566 17.1159 9.36961C15.4195 10.331 13.8919 11.5535 12.5877 12.9836C12.4975 13.0811 12.357 13.1126 12.2354 13.0601L9.47171 11.8649C9.90157 11.1876 9.7485 10.2839 9.09742 9.79213C8.81643 9.58035 8.48722 9.4776 8.16116 9.4776C7.69041 9.4776 7.22595 9.69044 6.9198 10.0941L5.60296 11.8345C5.09761 12.5024 5.17624 13.4648 5.81999 14.0016C6.50672 14.573 7.5237 14.4504 8.05631 13.7458L8.22826 13.5193L10.2046 15.8406C10.2895 15.9412 10.301 16.0828 10.236 16.196C9.06911 18.2174 8.27544 20.481 7.95042 22.8924C7.93365 23.0203 7.84033 23.1241 7.71452 23.1535L3.57003 24.1254C3.57527 23.1608 2.80781 22.3703 1.84639 22.3451C0.855612 22.3189 0.0357307 23.1545 0.0273432 24.1464L8.37132e-05 27.1795C-0.00935227 28.1545 0.780124 28.9503 1.75518 28.9503C2.24585 28.9503 2.69039 28.7532 3.01331 28.4324C3.33727 28.1126 3.53858 27.6691 3.54277 27.1795L3.54696 26.6899L7.72186 27.6544C7.84662 27.6828 7.93994 27.7865 7.95776 27.9145C8.27334 30.1948 9.00725 32.342 10.0798 34.2754C10.1438 34.3896 10.1291 34.5322 10.0421 34.6308L7.42934 37.5832C6.84536 36.8105 5.73296 36.6511 4.95292 37.2655C4.22111 37.8422 4.0974 38.9074 4.62896 39.6717L5.57884 41.0399C6.12403 41.8241 7.20288 42.0684 8.00179 41.5432C8.76716 41.0399 9.00306 40.046 8.58368 39.2617L12.2931 37.7405C12.4126 37.6912 12.5499 37.7226 12.638 37.818C14.0922 39.398 15.819 40.7222 17.7439 41.7161C17.8582 41.7759 17.9253 41.8975 17.9106 42.0254L17.4074 46.5725L17.3371 46.5474C16.2929 46.1668 15.0945 46.6973 14.7338 47.7489C14.3826 48.769 14.9131 49.8856 15.9301 50.2557L18.9695 51.3639C20.0599 51.7623 20.9522 51.1375 20.9522 49.9768C21.0339 49.7525 21.0727 49.5229 21.0727 49.2964C21.0727 48.487 20.5737 47.7269 19.7685 47.4333L19.6814 47.4019L22.1547 43.5216C22.2239 43.4136 22.3529 43.3601 22.4787 43.3853C23.6708 43.6285 24.9037 43.7575 26.1681 43.7575C26.3169 43.7575 26.4681 43.7556 26.616 43.7521C19.704 40.1072 14.988 32.8499 14.988 24.4925V24.4925Z" fill="#F37C7C"
>
     <animateTransform
    attributeName="transform"
    type="rotate"
    from="0 25 25"
    to="360 25 25"
    dur="10s"
    repeatCount="indefinite"
    restart="whenNotActive"/>
</path>
<path d="M15.9822 35.6045C17.1184 35.6045 18.0394 34.6834 18.0394 33.5472C18.0394 32.411 17.1184 31.49 15.9822 31.49C14.846 31.49 13.9249 32.411 13.9249 33.5472C13.9249 34.6834 14.846 35.6045 15.9822 35.6045Z" fill="#EE6161"/>
<path d="M31.2079 24.4925H30.5128C30.0784 24.4925 29.7264 24.1405 29.7264 23.7062C29.7264 23.272 30.0784 22.9199 30.5128 22.9199H31.2079C31.6423 22.9199 31.9942 23.272 31.9942 23.7062C31.9942 24.1405 31.6423 24.4925 31.2079 24.4925Z" fill="#F9B1B1"/>
<path d="M21.9474 38.2376H21.2332C20.7989 38.2376 20.4469 37.8856 20.4469 37.4513C20.4469 37.017 20.7989 36.665 21.2332 36.665H21.9474C22.3818 36.665 22.7338 37.017 22.7338 37.4513C22.7338 37.8856 22.3818 38.2376 21.9474 38.2376Z" fill="#F9B1B1"/>
<path d="M14.6129 26.7863H13.9249C13.4905 26.7863 13.1385 26.4343 13.1385 26C13.1385 25.5657 13.4905 25.2137 13.9249 25.2137H14.6129C15.0472 25.2137 15.3992 25.5657 15.3992 26C15.3992 26.4343 15.0472 26.7863 14.6129 26.7863Z" fill="#EE6161"/>
<path d="M28.5787 13.029H27.6213C27.1869 13.029 26.835 12.6769 26.835 12.2427C26.835 11.8084 27.1869 11.4563 27.6213 11.4563H28.5787C29.0131 11.4563 29.3651 11.8084 29.3651 12.2427C29.3651 12.6769 29.0131 13.029 28.5787 13.029Z" fill="#F9B1B1"/>
<path d="M34.8671 35.6779H33.8099C33.3755 35.6779 33.0236 35.3258 33.0236 34.8915C33.0236 34.4573 33.3755 34.1052 33.8099 34.1052H34.8671C35.3015 34.1052 35.6535 34.4573 35.6535 34.8915C35.6535 35.3258 35.3014 35.6779 34.8671 35.6779Z" fill="#EE6161"/>
<path d="M22.8735 22.0375C25.2214 20.1861 25.8714 17.0957 24.3251 15.1348C22.7789 13.1739 19.6221 13.0852 17.2742 14.9366C14.9263 16.788 14.2764 19.8785 15.8226 21.8394C17.3688 23.8002 20.5256 23.8889 22.8735 22.0375Z" fill="#EE6161"/>
</svg>
